<mxfile>
    <diagram id="m1c5xFg46kZD4bizrOMW" name="Page-1">
        <mxGraphModel dx="1668" dy="781" grid="1" gridSize="10" guides="1" tooltips="1" connect="1" arrows="1" fold="1" page="1" pageScale="1" pageWidth="380" pageHeight="380" background="#ffffff" math="0" shadow="0">
            <root>
                <mxCell id="0"/>
                <mxCell id="1" parent="0"/>
                <mxCell id="47" value="" style="group" vertex="1" connectable="0" parent="1">
                    <mxGeometry x="-360" y="30" width="400" height="300" as="geometry"/>
                </mxCell>
                <mxCell id="12" value="DHAP" style="ellipse;whiteSpace=wrap;html=1;strokeColor=#000000;strokeWidth=1;" parent="47" vertex="1">
                    <mxGeometry x="180" y="280" width="40" height="20" as="geometry"/>
                </mxCell>
                <mxCell id="14" value="FBP" style="ellipse;whiteSpace=wrap;html=1;strokeColor=#000000;strokeWidth=1;" parent="47" vertex="1">
                    <mxGeometry x="180" y="200" width="40" height="20" as="geometry"/>
                </mxCell>
                <object label="" reaction="vAldolase" id="39">
                    <mxCell style="edgeStyle=orthogonalEdgeStyle;curved=1;rounded=0;orthogonalLoop=1;jettySize=auto;html=1;exitX=0.5;exitY=0;exitDx=0;exitDy=0;entryX=0.5;entryY=1;entryDx=0;entryDy=0;strokeColor=#000000;" parent="47" source="12" target="14" edge="1">
                        <mxGeometry relative="1" as="geometry"/>
                    </mxCell>
                </object>
                <mxCell id="16" value="RUBP" style="ellipse;whiteSpace=wrap;html=1;strokeColor=#000000;strokeWidth=1;" parent="47" vertex="1">
                    <mxGeometry x="180" width="40" height="20" as="geometry"/>
                </mxCell>
                <mxCell id="18" value="CO2" style="ellipse;whiteSpace=wrap;html=1;strokeColor=#000000;strokeWidth=1;" parent="47" vertex="1">
                    <mxGeometry x="240" y="40" width="40" height="20" as="geometry"/>
                </mxCell>
                <mxCell id="42" value="" style="edgeStyle=orthogonalEdgeStyle;rounded=0;orthogonalLoop=1;jettySize=auto;html=1;" parent="47" source="20" target="18" edge="1">
                    <mxGeometry relative="1" as="geometry"/>
                </mxCell>
                <mxCell id="20" value="&lt;font style=&quot;font-size: 8px&quot;&gt;Starch&lt;/font&gt;" style="ellipse;whiteSpace=wrap;html=1;strokeColor=#000000;strokeWidth=1;verticalAlign=middle;" parent="47" vertex="1">
                    <mxGeometry x="260" y="200" width="40" height="20" as="geometry"/>
                </mxCell>
                <mxCell id="23" value="F6P" style="ellipse;whiteSpace=wrap;html=1;strokeColor=#000000;strokeWidth=1;" parent="47" vertex="1">
                    <mxGeometry x="180" y="160" width="40" height="20" as="geometry"/>
                </mxCell>
                <object label="" reaction="vFBPase" id="13">
                    <mxCell style="edgeStyle=orthogonalEdgeStyle;rounded=0;orthogonalLoop=1;jettySize=auto;html=1;exitX=0.5;exitY=0;exitDx=0;exitDy=0;strokeColor=#000000;curved=1;" parent="47" source="14" edge="1">
                        <mxGeometry relative="1" as="geometry">
                            <mxPoint x="200" y="180" as="targetPoint"/>
                        </mxGeometry>
                    </mxCell>
                </object>
                <object label="" reaction="vStarch" id="19">
                    <mxCell style="edgeStyle=orthogonalEdgeStyle;curved=1;rounded=0;orthogonalLoop=1;jettySize=auto;html=1;entryX=0.5;entryY=0;entryDx=0;entryDy=0;strokeWidth=1;fillColor=#008a00;strokeColor=#005700;exitX=1;exitY=0.5;exitDx=0;exitDy=0;" parent="47" source="23" target="20" edge="1">
                        <mxGeometry relative="1" as="geometry">
                            <mxPoint x="410" y="95" as="sourcePoint"/>
                        </mxGeometry>
                    </mxCell>
                </object>
                <object label="" reaction="v13" id="24">
                    <mxCell style="edgeStyle=orthogonalEdgeStyle;rounded=0;orthogonalLoop=1;jettySize=auto;html=1;exitX=1;exitY=0.5;exitDx=0;exitDy=0;curved=1;entryX=0;entryY=0.5;entryDx=0;entryDy=0;strokeColor=#005700;" parent="47" source="25" target="16" edge="1">
                        <mxGeometry relative="1" as="geometry"/>
                    </mxCell>
                </object>
                <mxCell id="25" value="RU5P" style="ellipse;whiteSpace=wrap;html=1;strokeColor=#000000;strokeWidth=1;" parent="47" vertex="1">
                    <mxGeometry x="40" width="40" height="20" as="geometry"/>
                </mxCell>
                <object label="" reaction="v11" id="26">
                    <mxCell style="edgeStyle=orthogonalEdgeStyle;rounded=0;orthogonalLoop=1;jettySize=auto;html=1;exitX=0.5;exitY=0;exitDx=0;exitDy=0;entryX=0.5;entryY=1;entryDx=0;entryDy=0;strokeColor=#000000;curved=1;" parent="47" source="27" target="25" edge="1">
                        <mxGeometry relative="1" as="geometry"/>
                    </mxCell>
                </object>
                <mxCell id="27" value="R5P" style="ellipse;whiteSpace=wrap;html=1;strokeColor=#000000;strokeWidth=1;" parent="47" vertex="1">
                    <mxGeometry y="80" width="40" height="20" as="geometry"/>
                </mxCell>
                <object label="" reaction="v12" id="28">
                    <mxCell style="edgeStyle=orthogonalEdgeStyle;rounded=0;orthogonalLoop=1;jettySize=auto;html=1;exitX=0.5;exitY=0;exitDx=0;exitDy=0;entryX=0.5;entryY=1;entryDx=0;entryDy=0;strokeColor=#000000;curved=1;" parent="47" source="29" target="25" edge="1">
                        <mxGeometry relative="1" as="geometry"/>
                    </mxCell>
                </object>
                <mxCell id="29" value="X5P" style="ellipse;whiteSpace=wrap;html=1;strokeColor=#000000;strokeWidth=1;" parent="47" vertex="1">
                    <mxGeometry x="80" y="80" width="40" height="20" as="geometry"/>
                </mxCell>
                <object label="" reaction="vF6P_Transketolase" id="22">
                    <mxCell style="edgeStyle=orthogonalEdgeStyle;curved=1;rounded=0;orthogonalLoop=1;jettySize=auto;html=1;exitX=0;exitY=0.5;exitDx=0;exitDy=0;strokeColor=#000000;entryX=1;entryY=0.5;entryDx=0;entryDy=0;" parent="47" source="23" target="29" edge="1">
                        <mxGeometry relative="1" as="geometry">
                            <mxPoint x="30" y="200" as="targetPoint"/>
                        </mxGeometry>
                    </mxCell>
                </object>
                <mxCell id="31" value="E4P" style="ellipse;whiteSpace=wrap;html=1;strokeColor=#000000;strokeWidth=1;" parent="47" vertex="1">
                    <mxGeometry x="80" y="240" width="40" height="20" as="geometry"/>
                </mxCell>
                <object label="" reaction="vF6P_Transketolase" id="21">
                    <mxCell style="edgeStyle=orthogonalEdgeStyle;curved=1;rounded=0;orthogonalLoop=1;jettySize=auto;html=1;exitX=0;exitY=0.5;exitDx=0;exitDy=0;entryX=1;entryY=0.5;entryDx=0;entryDy=0;strokeColor=#000000;" parent="47" source="23" target="31" edge="1">
                        <mxGeometry relative="1" as="geometry"/>
                    </mxCell>
                </object>
                <mxCell id="33" value="SBP" style="ellipse;whiteSpace=wrap;html=1;strokeColor=#000000;strokeWidth=1;" parent="47" vertex="1">
                    <mxGeometry x="40" y="200" width="40" height="20" as="geometry"/>
                </mxCell>
                <object label="" reaction="v8" id="38">
                    <mxCell style="edgeStyle=orthogonalEdgeStyle;curved=1;rounded=0;orthogonalLoop=1;jettySize=auto;html=1;exitX=0;exitY=0.5;exitDx=0;exitDy=0;entryX=0.5;entryY=1;entryDx=0;entryDy=0;strokeColor=#000000;" parent="47" source="12" target="33" edge="1">
                        <mxGeometry relative="1" as="geometry"/>
                    </mxCell>
                </object>
                <object label="" reaction="v8" id="30">
                    <mxCell style="edgeStyle=orthogonalEdgeStyle;curved=1;rounded=0;orthogonalLoop=1;jettySize=auto;html=1;exitX=0;exitY=0.5;exitDx=0;exitDy=0;entryX=0.5;entryY=1;entryDx=0;entryDy=0;strokeColor=#000000;" parent="47" source="31" target="33" edge="1">
                        <mxGeometry relative="1" as="geometry"/>
                    </mxCell>
                </object>
                <object label="" reaction="v10" id="34">
                    <mxCell style="edgeStyle=orthogonalEdgeStyle;curved=1;rounded=0;orthogonalLoop=1;jettySize=auto;html=1;exitX=0.5;exitY=0;exitDx=0;exitDy=0;entryX=0.5;entryY=1;entryDx=0;entryDy=0;strokeColor=#000000;" parent="47" source="36" target="27" edge="1">
                        <mxGeometry relative="1" as="geometry"/>
                    </mxCell>
                </object>
                <object label="" reaction="v10" id="35">
                    <mxCell style="edgeStyle=orthogonalEdgeStyle;curved=1;rounded=0;orthogonalLoop=1;jettySize=auto;html=1;exitX=0.5;exitY=0;exitDx=0;exitDy=0;entryX=0.5;entryY=1;entryDx=0;entryDy=0;strokeColor=#000000;" parent="47" source="36" target="29" edge="1">
                        <mxGeometry relative="1" as="geometry"/>
                    </mxCell>
                </object>
                <mxCell id="36" value="S7P" style="ellipse;whiteSpace=wrap;html=1;strokeColor=#000000;strokeWidth=1;" parent="47" vertex="1">
                    <mxGeometry x="40" y="160" width="40" height="20" as="geometry"/>
                </mxCell>
                <object label="" reaction="v9" id="32">
                    <mxCell style="edgeStyle=orthogonalEdgeStyle;curved=1;rounded=0;orthogonalLoop=1;jettySize=auto;html=1;exitX=0.5;exitY=0;exitDx=0;exitDy=0;entryX=0.5;entryY=1;entryDx=0;entryDy=0;strokeColor=#000000;" parent="47" source="33" target="36" edge="1">
                        <mxGeometry relative="1" as="geometry"/>
                    </mxCell>
                </object>
                <object label="" reaction="vTPI" id="6">
                    <mxCell style="edgeStyle=orthogonalEdgeStyle;curved=1;rounded=0;orthogonalLoop=1;jettySize=auto;html=1;exitX=0.5;exitY=1;exitDx=0;exitDy=0;strokeWidth=1;strokeColor=#000000;entryX=1;entryY=0.5;entryDx=0;entryDy=0;" parent="47" source="10" target="12" edge="1">
                        <mxGeometry relative="1" as="geometry"/>
                    </mxCell>
                </object>
                <object label="" reaction="vAldolase" id="7">
                    <mxCell style="edgeStyle=orthogonalEdgeStyle;curved=1;rounded=0;orthogonalLoop=1;jettySize=auto;html=1;exitX=0.5;exitY=1;exitDx=0;exitDy=0;entryX=0.5;entryY=1;entryDx=0;entryDy=0;strokeWidth=1;strokeColor=#000000;" parent="47" source="10" target="14" edge="1">
                        <mxGeometry relative="1" as="geometry"/>
                    </mxCell>
                </object>
                <object label="" reaction="vRuBisCO" id="15">
                    <mxCell style="edgeStyle=orthogonalEdgeStyle;curved=1;rounded=0;orthogonalLoop=1;jettySize=auto;html=1;exitX=1;exitY=0.5;exitDx=0;exitDy=0;entryX=0;entryY=0.5;entryDx=0;entryDy=0;strokeWidth=1;strokeColor=#000000;" parent="47" source="16" target="3" edge="1">
                        <mxGeometry relative="1" as="geometry"/>
                    </mxCell>
                </object>
                <object label="" reaction="vRuBisCO" id="17">
                    <mxCell style="edgeStyle=orthogonalEdgeStyle;rounded=0;orthogonalLoop=1;jettySize=auto;html=1;exitX=0.5;exitY=0;exitDx=0;exitDy=0;strokeWidth=1;curved=1;entryX=0;entryY=0.5;entryDx=0;entryDy=0;strokeColor=#000000;" parent="47" source="18" target="3" edge="1">
                        <mxGeometry relative="1" as="geometry"/>
                    </mxCell>
                </object>
                <object label="" reaction="vF6P_Transketolase" id="9">
                    <mxCell style="edgeStyle=orthogonalEdgeStyle;curved=1;rounded=0;orthogonalLoop=1;jettySize=auto;html=1;exitX=0;exitY=0.5;exitDx=0;exitDy=0;entryX=1;entryY=0.5;entryDx=0;entryDy=0;strokeColor=#000000;" parent="47" source="10" target="29" edge="1">
                        <mxGeometry relative="1" as="geometry">
                            <Array as="points">
                                <mxPoint x="240" y="170"/>
                                <mxPoint x="240" y="90"/>
                            </Array>
                        </mxGeometry>
                    </mxCell>
                </object>
                <mxCell id="3" value="PGA" style="ellipse;whiteSpace=wrap;html=1;strokeColor=#000000;strokeWidth=1;" parent="47" vertex="1">
                    <mxGeometry x="300" width="40" height="20" as="geometry"/>
                </mxCell>
                <mxCell id="5" value="BPGA" style="ellipse;whiteSpace=wrap;html=1;strokeColor=#000000;strokeWidth=1;" parent="47" vertex="1">
                    <mxGeometry x="300" y="80" width="40" height="20" as="geometry"/>
                </mxCell>
                <object label="" reaction="vPGA_kinase" id="2">
                    <mxCell style="edgeStyle=orthogonalEdgeStyle;curved=1;rounded=0;orthogonalLoop=1;jettySize=auto;html=1;exitX=0.5;exitY=1;exitDx=0;exitDy=0;strokeWidth=1;fillColor=#008a00;strokeColor=#005700;" parent="47" source="3" target="5" edge="1">
                        <mxGeometry x="100" y="20" as="geometry"/>
                    </mxCell>
                </object>
                <object label="" reaction="v10" id="43">
                    <mxCell style="edgeStyle=orthogonalEdgeStyle;rounded=0;orthogonalLoop=1;jettySize=auto;html=1;exitX=0;exitY=0.5;exitDx=0;exitDy=0;strokeColor=#000000;entryX=0.5;entryY=1;entryDx=0;entryDy=0;curved=1;" parent="47" source="10" target="29" edge="1">
                        <mxGeometry relative="1" as="geometry">
                            <mxPoint x="220" y="80" as="targetPoint"/>
                            <Array as="points">
                                <mxPoint x="220" y="170"/>
                                <mxPoint x="220" y="130"/>
                                <mxPoint x="100" y="130"/>
                            </Array>
                        </mxGeometry>
                    </mxCell>
                </object>
                <mxCell id="10" value="GAP" style="ellipse;whiteSpace=wrap;html=1;strokeColor=#000000;strokeWidth=1;" parent="47" vertex="1">
                    <mxGeometry x="300" y="160" width="40" height="20" as="geometry"/>
                </mxCell>
                <object label="" reaction="vBPGA_dehydrogenase" id="4">
                    <mxCell style="edgeStyle=orthogonalEdgeStyle;curved=1;rounded=0;orthogonalLoop=1;jettySize=auto;html=1;entryX=0.5;entryY=0;entryDx=0;entryDy=0;strokeWidth=1;fillColor=#1ba1e2;strokeColor=#006EAF;exitX=0.5;exitY=1;exitDx=0;exitDy=0;" parent="47" source="5" target="10" edge="1">
                        <mxGeometry x="100" y="20" as="geometry">
                            <mxPoint x="240" y="30" as="sourcePoint"/>
                        </mxGeometry>
                    </mxCell>
                </object>
                <object label="" reaction="vpga" id="44">
                    <mxCell style="edgeStyle=orthogonalEdgeStyle;curved=1;rounded=0;orthogonalLoop=1;jettySize=auto;html=1;exitX=1;exitY=0.5;exitDx=0;exitDy=0;fontSize=12;fillColor=#f5f5f5;dashed=1;strokeColor=#000000;" parent="47" source="3" edge="1">
                        <mxGeometry x="480" y="-40.24" as="geometry">
                            <mxPoint x="400" y="10" as="targetPoint"/>
                            <mxPoint x="339.9999999999965" y="10" as="sourcePoint"/>
                        </mxGeometry>
                    </mxCell>
                </object>
                <object label="" reaction="vdhap" id="45">
                    <mxCell style="edgeStyle=orthogonalEdgeStyle;curved=1;rounded=0;orthogonalLoop=1;jettySize=auto;html=1;exitX=1;exitY=0.5;exitDx=0;exitDy=0;fontSize=12;dashed=1;strokeColor=#000000;" parent="47" source="12" edge="1">
                        <mxGeometry x="470" y="-70.24000000000001" as="geometry">
                            <mxPoint x="400" y="290" as="targetPoint"/>
                            <mxPoint x="339.9999999999965" y="90" as="sourcePoint"/>
                            <Array as="points"/>
                        </mxGeometry>
                    </mxCell>
                </object>
                <object label="" reaction="vgap" id="46">
                    <mxCell style="edgeStyle=orthogonalEdgeStyle;curved=1;rounded=0;orthogonalLoop=1;jettySize=auto;html=1;exitX=1;exitY=0.5;exitDx=0;exitDy=0;fontSize=12;dashed=1;strokeColor=#000000;" parent="47" source="10" edge="1">
                        <mxGeometry x="480" y="-30.24" as="geometry">
                            <mxPoint x="400" y="170" as="targetPoint"/>
                            <mxPoint x="339.9999999999965" y="170" as="sourcePoint"/>
                        </mxGeometry>
                    </mxCell>
                </object>
            </root>
        </mxGraphModel>
    </diagram>
</mxfile>
